<mxfile host="app.diagrams.net" modified="2023-04-29T20:42:49.083Z" agent="Mozilla/5.0 (Windows NT 10.0; Win64; x64) AppleWebKit/537.36 (KHTML, like Gecko) Chrome/112.0.0.0 Safari/537.36" etag="ROWdJ7Z1JoEdNK8wie_p" version="21.1.7" type="device">
  <diagram name="Page-1" id="03018318-947c-dd8e-b7a3-06fadd420f32">
    <mxGraphModel dx="2733" dy="1196" grid="1" gridSize="10" guides="1" tooltips="1" connect="1" arrows="1" fold="1" page="1" pageScale="1" pageWidth="1100" pageHeight="850" background="none" math="0" shadow="0">
      <root>
        <mxCell id="0" />
        <mxCell id="1" parent="0" />
        <mxCell id="677b7b8949515195-1" value="" style="whiteSpace=wrap;html=1;rounded=0;shadow=0;labelBackgroundColor=none;strokeColor=#000000;strokeWidth=1;fillColor=#403d39;fontFamily=Verdana;fontSize=12;fontColor=#000000;align=center;comic=1;" parent="1" vertex="1">
          <mxGeometry y="20" width="1120" height="980" as="geometry" />
        </mxCell>
        <mxCell id="4X58-Z-mhZ1VTJcCa72U-1" value="" style="rounded=0;whiteSpace=wrap;html=1;shadow=0;labelBackgroundColor=none;comic=1;strokeColor=default;strokeWidth=1;fontFamily=Verdana;fontSize=14;fontColor=#000000;fillColor=#252422;" vertex="1" parent="1">
          <mxGeometry y="20" width="1120" height="180" as="geometry" />
        </mxCell>
        <mxCell id="4X58-Z-mhZ1VTJcCa72U-2" value="" style="rounded=0;whiteSpace=wrap;html=1;shadow=0;labelBackgroundColor=none;comic=1;strokeColor=default;strokeWidth=1;fontFamily=Verdana;fontSize=14;fontColor=#000000;fillColor=none;" vertex="1" parent="1">
          <mxGeometry x="200" y="80" width="720" height="80" as="geometry" />
        </mxCell>
        <mxCell id="4X58-Z-mhZ1VTJcCa72U-4" value="" style="rounded=1;whiteSpace=wrap;html=1;shadow=0;labelBackgroundColor=none;comic=1;strokeColor=default;strokeWidth=1;fontFamily=Verdana;fontSize=14;fontColor=#000000;fillColor=none;" vertex="1" parent="1">
          <mxGeometry x="200" y="240" width="720" height="80" as="geometry" />
        </mxCell>
        <mxCell id="4X58-Z-mhZ1VTJcCa72U-5" value="" style="rounded=1;whiteSpace=wrap;html=1;shadow=0;labelBackgroundColor=none;comic=1;strokeColor=default;strokeWidth=1;fontFamily=Verdana;fontSize=14;fontColor=#000000;fillColor=none;" vertex="1" parent="1">
          <mxGeometry x="200" y="320" width="720" height="80" as="geometry" />
        </mxCell>
        <mxCell id="4X58-Z-mhZ1VTJcCa72U-6" value="" style="rounded=1;whiteSpace=wrap;html=1;shadow=0;labelBackgroundColor=none;comic=1;strokeColor=default;strokeWidth=1;fontFamily=Verdana;fontSize=14;fontColor=#000000;fillColor=none;" vertex="1" parent="1">
          <mxGeometry x="200" y="400" width="720" height="80" as="geometry" />
        </mxCell>
        <mxCell id="4X58-Z-mhZ1VTJcCa72U-7" value="" style="rounded=1;whiteSpace=wrap;html=1;shadow=0;labelBackgroundColor=none;comic=1;strokeColor=default;strokeWidth=1;fontFamily=Verdana;fontSize=14;fontColor=#000000;fillColor=none;" vertex="1" parent="1">
          <mxGeometry x="200" y="480" width="720" height="80" as="geometry" />
        </mxCell>
        <mxCell id="4X58-Z-mhZ1VTJcCa72U-8" value="" style="rounded=1;whiteSpace=wrap;html=1;shadow=0;labelBackgroundColor=none;comic=1;strokeColor=default;strokeWidth=1;fontFamily=Verdana;fontSize=14;fontColor=#000000;fillColor=#ccc5b9;" vertex="1" parent="1">
          <mxGeometry x="200" y="560" width="720" height="80" as="geometry" />
        </mxCell>
        <mxCell id="4X58-Z-mhZ1VTJcCa72U-9" value="" style="rounded=1;whiteSpace=wrap;html=1;shadow=0;labelBackgroundColor=none;comic=1;strokeColor=default;strokeWidth=1;fontFamily=Verdana;fontSize=14;fontColor=#000000;fillColor=#1c1c1c;" vertex="1" parent="1">
          <mxGeometry x="200" y="640" width="720" height="80" as="geometry" />
        </mxCell>
        <mxCell id="4X58-Z-mhZ1VTJcCa72U-10" value="" style="rounded=1;whiteSpace=wrap;html=1;shadow=0;labelBackgroundColor=none;comic=1;strokeColor=default;strokeWidth=1;fontFamily=Verdana;fontSize=14;fontColor=#000000;fillColor=#1c1c1c;" vertex="1" parent="1">
          <mxGeometry x="200" y="720" width="720" height="80" as="geometry" />
        </mxCell>
        <mxCell id="4X58-Z-mhZ1VTJcCa72U-11" value="" style="rounded=1;whiteSpace=wrap;html=1;shadow=0;labelBackgroundColor=none;comic=1;strokeColor=default;strokeWidth=1;fontFamily=Verdana;fontSize=14;fontColor=#000000;fillColor=#1c1c1c;" vertex="1" parent="1">
          <mxGeometry x="200" y="800" width="720" height="80" as="geometry" />
        </mxCell>
        <mxCell id="4X58-Z-mhZ1VTJcCa72U-12" value="" style="rounded=1;whiteSpace=wrap;html=1;shadow=0;labelBackgroundColor=none;comic=1;strokeColor=default;strokeWidth=1;fontFamily=Verdana;fontSize=14;fontColor=#000000;fillColor=#1c1c1c;" vertex="1" parent="1">
          <mxGeometry x="200" y="880" width="720" height="80" as="geometry" />
        </mxCell>
        <mxCell id="4X58-Z-mhZ1VTJcCa72U-16" value="" style="rounded=1;whiteSpace=wrap;html=1;shadow=0;labelBackgroundColor=none;comic=1;strokeColor=default;strokeWidth=1;fontFamily=Verdana;fontSize=14;fontColor=#000000;fillColor=#000000;" vertex="1" parent="1">
          <mxGeometry x="210" y="250" width="60" height="30" as="geometry" />
        </mxCell>
        <mxCell id="4X58-Z-mhZ1VTJcCa72U-17" value="" style="rounded=1;whiteSpace=wrap;html=1;shadow=0;labelBackgroundColor=none;comic=1;strokeColor=default;strokeWidth=1;fontFamily=Verdana;fontSize=14;fontColor=#000000;fillColor=none;" vertex="1" parent="1">
          <mxGeometry x="290" y="240" width="540" height="80" as="geometry" />
        </mxCell>
        <mxCell id="4X58-Z-mhZ1VTJcCa72U-18" value="" style="rounded=1;whiteSpace=wrap;html=1;shadow=0;labelBackgroundColor=none;comic=1;strokeColor=default;strokeWidth=1;fontFamily=Verdana;fontSize=14;fontColor=#000000;fillColor=#eb5e28;" vertex="1" parent="1">
          <mxGeometry x="840" y="250" width="70" height="60" as="geometry" />
        </mxCell>
        <mxCell id="4X58-Z-mhZ1VTJcCa72U-19" value="" style="rounded=1;whiteSpace=wrap;html=1;shadow=0;labelBackgroundColor=none;comic=1;strokeColor=default;strokeWidth=1;fontFamily=Verdana;fontSize=14;fontColor=#000000;fillColor=#000000;" vertex="1" parent="1">
          <mxGeometry x="210" y="330" width="60" height="30" as="geometry" />
        </mxCell>
        <mxCell id="4X58-Z-mhZ1VTJcCa72U-20" value="" style="rounded=1;whiteSpace=wrap;html=1;shadow=0;labelBackgroundColor=none;comic=1;strokeColor=default;strokeWidth=1;fontFamily=Verdana;fontSize=14;fontColor=#000000;fillColor=none;" vertex="1" parent="1">
          <mxGeometry x="290" y="330" width="540" height="60" as="geometry" />
        </mxCell>
        <mxCell id="4X58-Z-mhZ1VTJcCa72U-21" value="" style="rounded=1;whiteSpace=wrap;html=1;shadow=0;labelBackgroundColor=none;comic=1;strokeColor=default;strokeWidth=1;fontFamily=Verdana;fontSize=14;fontColor=#000000;fillColor=#eb5e28;" vertex="1" parent="1">
          <mxGeometry x="840" y="330" width="70" height="60" as="geometry" />
        </mxCell>
        <mxCell id="4X58-Z-mhZ1VTJcCa72U-22" value="" style="rounded=1;whiteSpace=wrap;html=1;shadow=0;labelBackgroundColor=none;comic=1;strokeColor=default;strokeWidth=1;fontFamily=Verdana;fontSize=14;fontColor=#000000;fillColor=#000000;" vertex="1" parent="1">
          <mxGeometry x="210" y="410" width="60" height="30" as="geometry" />
        </mxCell>
        <mxCell id="4X58-Z-mhZ1VTJcCa72U-23" value="" style="rounded=1;whiteSpace=wrap;html=1;shadow=0;labelBackgroundColor=none;comic=1;strokeColor=default;strokeWidth=1;fontFamily=Verdana;fontSize=14;fontColor=#000000;fillColor=none;" vertex="1" parent="1">
          <mxGeometry x="290" y="410" width="540" height="60" as="geometry" />
        </mxCell>
        <mxCell id="4X58-Z-mhZ1VTJcCa72U-24" value="" style="rounded=1;whiteSpace=wrap;html=1;shadow=0;labelBackgroundColor=none;comic=1;strokeColor=default;strokeWidth=1;fontFamily=Verdana;fontSize=14;fontColor=#000000;fillColor=#eb5e28;" vertex="1" parent="1">
          <mxGeometry x="840" y="410" width="70" height="60" as="geometry" />
        </mxCell>
        <mxCell id="4X58-Z-mhZ1VTJcCa72U-25" value="" style="rounded=1;whiteSpace=wrap;html=1;shadow=0;labelBackgroundColor=none;comic=1;strokeColor=default;strokeWidth=1;fontFamily=Verdana;fontSize=14;fontColor=#000000;fillColor=#000000;" vertex="1" parent="1">
          <mxGeometry x="210" y="490" width="60" height="30" as="geometry" />
        </mxCell>
        <mxCell id="4X58-Z-mhZ1VTJcCa72U-26" value="" style="rounded=1;whiteSpace=wrap;html=1;shadow=0;labelBackgroundColor=none;comic=1;strokeColor=default;strokeWidth=1;fontFamily=Verdana;fontSize=14;fontColor=#000000;fillColor=none;" vertex="1" parent="1">
          <mxGeometry x="290" y="490" width="540" height="60" as="geometry" />
        </mxCell>
        <mxCell id="4X58-Z-mhZ1VTJcCa72U-27" value="" style="rounded=1;whiteSpace=wrap;html=1;shadow=0;labelBackgroundColor=none;comic=1;strokeColor=default;strokeWidth=1;fontFamily=Verdana;fontSize=14;fontColor=#000000;fillColor=#eb5e28;" vertex="1" parent="1">
          <mxGeometry x="840" y="490" width="70" height="60" as="geometry" />
        </mxCell>
        <mxCell id="4X58-Z-mhZ1VTJcCa72U-28" value="" style="rounded=1;whiteSpace=wrap;html=1;shadow=0;labelBackgroundColor=none;comic=1;strokeColor=default;strokeWidth=1;fontFamily=Verdana;fontSize=14;fontColor=#000000;fillColor=#000000;" vertex="1" parent="1">
          <mxGeometry x="210" y="570" width="60" height="30" as="geometry" />
        </mxCell>
        <mxCell id="4X58-Z-mhZ1VTJcCa72U-29" value="" style="rounded=1;whiteSpace=wrap;html=1;shadow=0;labelBackgroundColor=none;comic=1;strokeColor=default;strokeWidth=1;fontFamily=Verdana;fontSize=14;fontColor=#000000;fillColor=none;" vertex="1" parent="1">
          <mxGeometry x="290" y="570" width="540" height="60" as="geometry" />
        </mxCell>
        <mxCell id="4X58-Z-mhZ1VTJcCa72U-30" value="" style="rounded=1;whiteSpace=wrap;html=1;shadow=0;labelBackgroundColor=none;comic=1;strokeColor=default;strokeWidth=1;fontFamily=Verdana;fontSize=14;fontColor=#000000;fillColor=#eb5e28;" vertex="1" parent="1">
          <mxGeometry x="840" y="570" width="70" height="60" as="geometry" />
        </mxCell>
        <mxCell id="4X58-Z-mhZ1VTJcCa72U-31" value="" style="rounded=1;whiteSpace=wrap;html=1;shadow=0;labelBackgroundColor=none;comic=1;strokeColor=default;strokeWidth=1;fontFamily=Verdana;fontSize=14;fontColor=#000000;fillColor=#000000;" vertex="1" parent="1">
          <mxGeometry x="210" y="650" width="60" height="30" as="geometry" />
        </mxCell>
        <mxCell id="4X58-Z-mhZ1VTJcCa72U-32" value="" style="rounded=1;whiteSpace=wrap;html=1;shadow=0;labelBackgroundColor=none;comic=1;strokeColor=default;strokeWidth=1;fontFamily=Verdana;fontSize=14;fontColor=#000000;fillColor=none;" vertex="1" parent="1">
          <mxGeometry x="290" y="650" width="540" height="60" as="geometry" />
        </mxCell>
        <mxCell id="4X58-Z-mhZ1VTJcCa72U-33" value="" style="rounded=1;whiteSpace=wrap;html=1;shadow=0;labelBackgroundColor=none;comic=1;strokeColor=default;strokeWidth=1;fontFamily=Verdana;fontSize=14;fontColor=#000000;fillColor=#eb5e28;" vertex="1" parent="1">
          <mxGeometry x="840" y="650" width="70" height="60" as="geometry" />
        </mxCell>
        <mxCell id="4X58-Z-mhZ1VTJcCa72U-34" value="" style="rounded=1;whiteSpace=wrap;html=1;shadow=0;labelBackgroundColor=none;comic=1;strokeColor=default;strokeWidth=1;fontFamily=Verdana;fontSize=14;fontColor=#000000;fillColor=#000000;" vertex="1" parent="1">
          <mxGeometry x="210" y="730" width="60" height="30" as="geometry" />
        </mxCell>
        <mxCell id="4X58-Z-mhZ1VTJcCa72U-35" value="" style="rounded=1;whiteSpace=wrap;html=1;shadow=0;labelBackgroundColor=none;comic=1;strokeColor=default;strokeWidth=1;fontFamily=Verdana;fontSize=14;fontColor=#000000;fillColor=none;" vertex="1" parent="1">
          <mxGeometry x="290" y="730" width="540" height="60" as="geometry" />
        </mxCell>
        <mxCell id="4X58-Z-mhZ1VTJcCa72U-36" value="" style="rounded=1;whiteSpace=wrap;html=1;shadow=0;labelBackgroundColor=none;comic=1;strokeColor=default;strokeWidth=1;fontFamily=Verdana;fontSize=14;fontColor=#000000;fillColor=#eb5e28;" vertex="1" parent="1">
          <mxGeometry x="840" y="730" width="70" height="60" as="geometry" />
        </mxCell>
        <mxCell id="4X58-Z-mhZ1VTJcCa72U-37" value="" style="rounded=1;whiteSpace=wrap;html=1;shadow=0;labelBackgroundColor=none;comic=1;strokeColor=default;strokeWidth=1;fontFamily=Verdana;fontSize=14;fontColor=#000000;fillColor=#000000;" vertex="1" parent="1">
          <mxGeometry x="210" y="810" width="60" height="30" as="geometry" />
        </mxCell>
        <mxCell id="4X58-Z-mhZ1VTJcCa72U-38" value="" style="rounded=1;whiteSpace=wrap;html=1;shadow=0;labelBackgroundColor=none;comic=1;strokeColor=default;strokeWidth=1;fontFamily=Verdana;fontSize=14;fontColor=#000000;fillColor=none;" vertex="1" parent="1">
          <mxGeometry x="290" y="810" width="540" height="60" as="geometry" />
        </mxCell>
        <mxCell id="4X58-Z-mhZ1VTJcCa72U-39" value="" style="rounded=1;whiteSpace=wrap;html=1;shadow=0;labelBackgroundColor=none;comic=1;strokeColor=default;strokeWidth=1;fontFamily=Verdana;fontSize=14;fontColor=#000000;fillColor=#eb5e28;" vertex="1" parent="1">
          <mxGeometry x="840" y="810" width="70" height="60" as="geometry" />
        </mxCell>
        <mxCell id="4X58-Z-mhZ1VTJcCa72U-40" value="" style="rounded=1;whiteSpace=wrap;html=1;shadow=0;labelBackgroundColor=none;comic=1;strokeColor=default;strokeWidth=1;fontFamily=Verdana;fontSize=14;fontColor=#000000;fillColor=#000000;" vertex="1" parent="1">
          <mxGeometry x="210" y="890" width="60" height="30" as="geometry" />
        </mxCell>
        <mxCell id="4X58-Z-mhZ1VTJcCa72U-41" value="" style="rounded=1;whiteSpace=wrap;html=1;shadow=0;labelBackgroundColor=none;comic=1;strokeColor=default;strokeWidth=1;fontFamily=Verdana;fontSize=14;fontColor=#000000;fillColor=none;" vertex="1" parent="1">
          <mxGeometry x="290" y="890" width="540" height="60" as="geometry" />
        </mxCell>
        <mxCell id="4X58-Z-mhZ1VTJcCa72U-42" value="" style="rounded=1;whiteSpace=wrap;html=1;shadow=0;labelBackgroundColor=none;comic=1;strokeColor=default;strokeWidth=1;fontFamily=Verdana;fontSize=14;fontColor=#000000;fillColor=#eb5e28;" vertex="1" parent="1">
          <mxGeometry x="840" y="890" width="70" height="60" as="geometry" />
        </mxCell>
        <mxCell id="4X58-Z-mhZ1VTJcCa72U-43" value="&lt;font style=&quot;font-size: 48px;&quot;&gt;sdvzbsfdibvdzfui&lt;/font&gt;" style="text;html=1;strokeColor=none;fillColor=#fffcf2;align=center;verticalAlign=middle;whiteSpace=wrap;rounded=0;fontSize=14;fontFamily=Verdana;fontColor=#000000;" vertex="1" parent="1">
          <mxGeometry x="320" y="80" width="490" height="80" as="geometry" />
        </mxCell>
        <mxCell id="4X58-Z-mhZ1VTJcCa72U-45" value="" style="edgeStyle=none;orthogonalLoop=1;jettySize=auto;html=1;rounded=0;fontFamily=Verdana;fontSize=14;fontColor=#000000;entryX=1;entryY=0;entryDx=0;entryDy=0;" edge="1" parent="1" target="677b7b8949515195-1">
          <mxGeometry width="100" relative="1" as="geometry">
            <mxPoint x="1200" y="20" as="sourcePoint" />
            <mxPoint x="1250" y="310" as="targetPoint" />
            <Array as="points" />
          </mxGeometry>
        </mxCell>
        <mxCell id="4X58-Z-mhZ1VTJcCa72U-48" value="Body" style="text;html=1;align=center;verticalAlign=middle;resizable=0;points=[];autosize=1;strokeColor=none;fillColor=none;fontSize=14;fontFamily=Verdana;fontColor=#000000;" vertex="1" parent="1">
          <mxGeometry x="1195" width="60" height="30" as="geometry" />
        </mxCell>
        <mxCell id="4X58-Z-mhZ1VTJcCa72U-49" value="" style="edgeStyle=none;orthogonalLoop=1;jettySize=auto;html=1;rounded=0;fontFamily=Verdana;fontSize=14;fontColor=#000000;entryX=1;entryY=0;entryDx=0;entryDy=0;" edge="1" parent="1">
          <mxGeometry width="100" relative="1" as="geometry">
            <mxPoint x="1200" y="50" as="sourcePoint" />
            <mxPoint x="1120" y="50" as="targetPoint" />
            <Array as="points" />
          </mxGeometry>
        </mxCell>
        <mxCell id="4X58-Z-mhZ1VTJcCa72U-50" value="Header" style="text;html=1;align=center;verticalAlign=middle;resizable=0;points=[];autosize=1;strokeColor=none;fillColor=none;fontSize=14;fontFamily=Verdana;fontColor=#000000;" vertex="1" parent="1">
          <mxGeometry x="1190" y="30" width="70" height="30" as="geometry" />
        </mxCell>
        <mxCell id="4X58-Z-mhZ1VTJcCa72U-51" value="" style="edgeStyle=none;orthogonalLoop=1;jettySize=auto;html=1;rounded=0;fontFamily=Verdana;fontSize=14;fontColor=#000000;entryX=1;entryY=0.5;entryDx=0;entryDy=0;" edge="1" parent="1" target="4X58-Z-mhZ1VTJcCa72U-2">
          <mxGeometry width="100" relative="1" as="geometry">
            <mxPoint x="1200" y="115" as="sourcePoint" />
            <mxPoint x="1120" y="115" as="targetPoint" />
            <Array as="points" />
          </mxGeometry>
        </mxCell>
        <mxCell id="4X58-Z-mhZ1VTJcCa72U-52" value="Div id=&quot;timer&quot;" style="text;html=1;align=center;verticalAlign=middle;resizable=0;points=[];autosize=1;strokeColor=none;fillColor=none;fontSize=14;fontFamily=Verdana;fontColor=#000000;" vertex="1" parent="1">
          <mxGeometry x="1160" y="95" width="130" height="30" as="geometry" />
        </mxCell>
        <mxCell id="4X58-Z-mhZ1VTJcCa72U-55" value="" style="endArrow=none;html=1;rounded=0;fontFamily=Verdana;fontSize=14;fontColor=#000000;" edge="1" parent="1">
          <mxGeometry width="50" height="50" relative="1" as="geometry">
            <mxPoint x="-100" y="600" as="sourcePoint" />
            <mxPoint x="1270" y="600" as="targetPoint" />
          </mxGeometry>
        </mxCell>
        <mxCell id="4X58-Z-mhZ1VTJcCa72U-57" value="" style="edgeStyle=none;orthogonalLoop=1;jettySize=auto;html=1;rounded=0;fontFamily=Verdana;fontSize=14;fontColor=#000000;entryX=1;entryY=0.75;entryDx=0;entryDy=0;" edge="1" parent="1" target="4X58-Z-mhZ1VTJcCa72U-43">
          <mxGeometry width="100" relative="1" as="geometry">
            <mxPoint x="1200" y="145" as="sourcePoint" />
            <mxPoint x="1120" y="145" as="targetPoint" />
            <Array as="points" />
          </mxGeometry>
        </mxCell>
        <mxCell id="4X58-Z-mhZ1VTJcCa72U-58" value="p&#39;s and span" style="text;html=1;align=center;verticalAlign=middle;resizable=0;points=[];autosize=1;strokeColor=none;fillColor=none;fontSize=14;fontFamily=Verdana;fontColor=#000000;" vertex="1" parent="1">
          <mxGeometry x="1170" y="125" width="110" height="30" as="geometry" />
        </mxCell>
        <mxCell id="4X58-Z-mhZ1VTJcCa72U-59" value="" style="rounded=0;whiteSpace=wrap;html=1;shadow=0;labelBackgroundColor=none;comic=1;strokeColor=default;strokeWidth=1;fontFamily=Verdana;fontSize=14;fontColor=#000000;fillColor=none;" vertex="1" parent="1">
          <mxGeometry x="190" y="230" width="740" height="740" as="geometry" />
        </mxCell>
        <mxCell id="4X58-Z-mhZ1VTJcCa72U-61" value="" style="edgeStyle=none;orthogonalLoop=1;jettySize=auto;html=1;rounded=0;fontFamily=Verdana;fontSize=14;fontColor=#000000;entryX=1;entryY=0;entryDx=0;entryDy=0;" edge="1" parent="1">
          <mxGeometry width="100" relative="1" as="geometry">
            <mxPoint x="1200" y="365" as="sourcePoint" />
            <mxPoint x="1120" y="365" as="targetPoint" />
            <Array as="points" />
          </mxGeometry>
        </mxCell>
        <mxCell id="4X58-Z-mhZ1VTJcCa72U-62" value="div with bootstap cards" style="text;html=1;align=center;verticalAlign=middle;resizable=0;points=[];autosize=1;strokeColor=none;fillColor=none;fontSize=14;fontFamily=Verdana;fontColor=#000000;" vertex="1" parent="1">
          <mxGeometry x="1130" y="345" width="190" height="30" as="geometry" />
        </mxCell>
      </root>
    </mxGraphModel>
  </diagram>
</mxfile>
